#!OML:ASF F:\VICON\USERDATA\INSTALL\Justin_Nancy\Justin_Nancy.ASF
:FULLY-SPECIFIED
:DEGREES
116
root -7.86311 17.265 -8.04273 -3.58259 27.2853 -8.74288
lowerback 8.09358 -3.16827 4.03337
upperback -0.129394 -3.48315 6.5089
thorax -4.51651 -1.72429 4.96553
lowerneck -13.3985 -2.66944 -9.02418
upperneck 21.7958 -1.76726 0.909124
head 9.1851 -1.44893 1.6097
rclavicle -3.71727e-014 7.95139e-015
rhumerus -38.4681 -12.6486 -74.2017
rradius 35.5202
rwrist 2.5402
rhand -17.8555 10.5153
rfingers 7.12502
rthumb 8.40978 -19.2972
lclavicle -3.71727e-014 7.95139e-015
lhumerus -33.8201 4.24539 90.6293
lradius 29.8691
lwrist 0.0932536
lhand -19.8988 19.9824
lfingers 7.12502
lthumb 6.4375 49.8646
rfemur -5.82896 8.41574 22.1676
rtibia 27.7345
rfoot -16.1858 -0.00408584
rtoes -15.3067
lfemur -29.7759 7.15728 -21.1518
ltibia 60.5538
lfoot -16.2309 1.43156
ltoes 2.21741
117
root -7.80567 17.2627 -7.83682 -3.66488 27.949 -9.16783
lowerback 8.05325 -3.10705 4.41879
upperback -0.17299 -3.35681 6.5841
thorax -4.56522 -1.66724 4.81468
lowerneck -13.5633 -2.87837 -9.1892
upperneck 21.8666 -2.05692 1.15324
head 9.26039 -1.57239 1.68484
rclavicle -1.64991e-014 -1.43125e-014
rhumerus -38.7009 -12.1929 -74.5196
rradius 36.9491
rwrist 0.997812
rhand -18.2894 10.4382
rfingers 7.12502
rthumb 7.99105 -19.3907
lclavicle -1.64991e-014 -1.43125e-014
lhumerus -34.1844 4.47132 90.5342
lradius 29.2851
lwrist -0.858372
lhand -19.3339 19.9521
lfingers 7.12502
lthumb 6.98288 49.8169
rfemur -4.78787 8.47248 22.6222
rtibia 27.187
rfoot -16.6009 0.647766
rtoes -16.7655
lfemur -30.9188 7.19031 -21.1938
ltibia 58.8227
lfoot -16.3452 1.95919
ltoes 3.78582
118
root -7.74514 17.2658 -7.62859 -3.86957 28.6034 -9.66391
lowerback 7.91717 -3.03331 4.81138
upperback -0.0911739 -3.23298 6.64379
thorax -4.42797 -1.6118 4.63031
lowerneck -14.0314 -3.12048 -9.28405
upperneck 22.365 -2.40585 1.5393
head 9.54671 -1.71071 1.78901
rclavicle 1.82882e-014 -4.6118e-014
rhumerus -38.6931 -11.9756 -74.8026
rradius 38.2376
rwrist -0.26944
rhand -18.7203 10.8928
rfingers 7.12502
rthumb 7.57509 -18.9515
lclavicle 1.82882e-014 -4.6118e-014
lhumerus -34.1322 4.78136 90.3593
lradius 28.2013
lwrist -1.62098
lhand -18.955 18.9953
lfingers 7.12502
lthumb 7.34861 48.8477
rfemur -3.48909 8.14363 23.213
rtibia 26.3827
rfoot -17.0436 0.841774
rtoes -18.3522
lfemur -31.8634 7.16052 -21.1108
ltibia 56.9602
lfoot -16.3989 2.82333
ltoes 2.84385
119
root -7.68369 17.2836 -7.42228 -4.06157 29.3051 -10.1439
lowerback 7.89599 -3.01145 5.07083
upperback -0.0621619 -3.17244 6.78869
thorax -4.39511 -1.58352 4.62977
lowerneck -14.5183 -3.23232 -9.37905
upperneck 22.7523 -2.55225 1.83079
head 9.78827 -1.76071 1.88536
rclavicle -3.70733e-014 7.79236e-014
rhumerus -38.4925 -11.3733 -75.0903
rradius 39.4088
rwrist -1.65596
rhand -18.9932 10.8322
rfingers 7.12502
rthumb 7.31176 -19.0215
lclavicle -3.70733e-014 7.79236e-014
lhumerus -34.1873 5.24592 90.1341
lradius 27.0765
lwrist -2.59258
lhand -18.4867 18.0909
lfingers 7.12502
lthumb 7.80056 47.927
rfemur -2.08758 7.48479 23.9142
rtibia 25.4368
rfoot -17.5568 0.365732
rtoes -22.8105
lfemur -32.7111 7.14185 -21.0609
ltibia 54.9247
lfoot -16.3176 3.66269
ltoes -0.13622
120
root -7.634 17.2509 -7.21809 -4.18611 29.9726 -10.5404
lowerback 7.84936 -2.92918 5.18469
upperback -0.0576082 -3.04701 6.92275
thorax -4.36851 -1.52049 4.69102
lowerneck -14.1838 -3.39275 -9.65246
upperneck 22.1833 -2.77324 1.93129
head 9.54504 -1.86326 1.93735
rclavicle -1.88845e-014 5.64548e-014
rhumerus -38.4046 -10.8855 -75.257
rradius 40.4979
rwrist -2.63517
rhand -19.2095 10.5448
rfingers 7.12502
rthumb 7.10291 -19.316
lclavicle -1.88845e-014 5.64548e-014
lhumerus -34.5058 5.42577 89.9257
lradius 26.7262
lwrist -4.36557
lhand -17.0627 20.1738
lfingers 7.12502
lthumb 9.17481 49.9542
rfemur -0.850759 8.22764 24.4472
rtibia 24.3474
rfoot -17.3164 0.97793
rtoes -16.6033
lfemur -33.7477 6.90178 -21.0119
ltibia 53.0048
lfoot -16.1765 3.97124
ltoes 0.886602
121
root -7.587 17.2311 -7.02431 -4.40393 30.4148 -11.111
lowerback 8.00726 -2.74546 5.48597
upperback -0.152398 -2.73984 7.02027
thorax -4.58051 -1.37217 4.60567
lowerneck -13.8167 -3.57336 -9.37682
upperneck 22.4376 -3.18041 2.14415
head 9.58665 -2.01117 1.92005
rclavicle 5.71506e-014 2.94201e-014
rhumerus -38.6007 -10.6512 -75.3491
rradius 41.6064
rwrist -3.4218
rhand -19.308 10.2451
rfingers 7.12502
rthumb 7.00788 -19.6189
lclavicle 5.71506e-014 2.94201e-014
lhumerus -34.789 5.65474 89.6345
lradius 26.1517
lwrist -5.85165
lhand -15.9148 22.3638
lfingers 7.12502
lthumb 10.2823 52.0924
rfemur 0.457836 8.54326 25.3181
rtibia 23.183
rfoot -17.1387 0.898929
rtoes -13.0969
lfemur -34.6837 6.50333 -20.6728
ltibia 50.9305
lfoot -15.9061 4.56585
ltoes 3.95089
